# xmcd CD database file
#
# Track frame offsets:
#	150
#	21276
#	36434
#	56618
#	77767
#	93576
#	111810
#	132425
#	150284
#	166943
#	187173
#
# Disc length: 2731 seconds
#
# Revision: 4
# Processed by: cddbd v1.5.2PL0 Copyright (c) Steve Scherf et al.
# Submitted via: CDex 1.51
#
DISCID=8d0aa90b
DTITLE=Il Divo - JTG-347
DYEAR=1900
DGENRE=Blues
TTITLE0=Il Divo - Unbreak My Heart
TTITLE1=Il Divo - Mama
TTITLE2=Il Divo - Nella Fantasia
TTITLE3=Il Divo - Passera
TTITLE4=Il Divo - Everytime I Look At You
TTITLE5=Il Divo - Ti Amero
TTITLE6=Il Divo - Dentro Un Altro Si
TTITLE7=Il Divo - The Man You Love
TTITLE8=Il Divo - Feelings
TTITLE9=Il Divo - My Way
TTITLE10=Il Divo - Unchained Melody
EXTD=
EXTT0=
EXTT1=
EXTT2=
EXTT3=
EXTT4=
EXTT5=
EXTT6=
EXTT7=
EXTT8=
EXTT9=
EXTT10=
PLAYORDER=
